<?xml version="1.0" encoding="UTF-8" standalone="no"?>
<!-- Created with Inkscape (http://www.inkscape.org/) -->

<svg
   xmlns:dc="http://purl.org/dc/elements/1.1/"
   xmlns:cc="http://creativecommons.org/ns#"
   xmlns:rdf="http://www.w3.org/1999/02/22-rdf-syntax-ns#"
   xmlns:svg="http://www.w3.org/2000/svg"
   xmlns="http://www.w3.org/2000/svg"
   version="1.1"
   width="64"
   height="52"
   viewBox="0 0 64 52"
   id="Layer_1"
   xml:space="preserve"><metadata
   id="metadata310"><rdf:RDF><cc:Work
       rdf:about=""><dc:format>image/svg+xml</dc:format><dc:type
         rdf:resource="http://purl.org/dc/dcmitype/StillImage" /><dc:title></dc:title></cc:Work></rdf:RDF></metadata><defs
   id="defs308" />
<rect
   width="44"
   height="48"
   x="2"
   y="2"
   id="rect236"
   style="fill:#ffffff" />
<rect
   width="16"
   height="38"
   x="46"
   y="12"
   id="rect238"
   style="fill:#ffffff" />
<rect
   width="22"
   height="2"
   x="2"
   y="0"
   id="rect240" />
<rect
   width="4"
   height="2"
   x="0"
   y="2"
   id="rect242" />
<rect
   width="2"
   height="46"
   x="0"
   y="4"
   id="rect244" />
<rect
   width="2"
   height="4"
   x="2"
   y="48"
   id="rect246" />
<rect
   width="58"
   height="2"
   x="4"
   y="50"
   id="rect248" />
<rect
   width="4"
   height="2"
   x="60"
   y="48"
   id="rect250" />
<rect
   width="2"
   height="36"
   x="62"
   y="12"
   id="rect252" />
<rect
   width="2"
   height="4"
   x="60"
   y="10"
   id="rect254" />
<rect
   width="36"
   height="2"
   x="24"
   y="10"
   id="rect256" />
<rect
   width="6"
   height="2"
   x="22"
   y="2"
   id="rect258" />
<rect
   width="2"
   height="6"
   x="24"
   y="4"
   id="rect260" />
<rect
   width="20"
   height="2"
   x="26"
   y="0"
   id="rect262" />
<rect
   width="4"
   height="2"
   x="44"
   y="2"
   id="rect264" />
<rect
   width="2"
   height="6"
   x="46"
   y="4"
   id="rect266" />
<rect
   width="2"
   height="2"
   x="40"
   y="16"
   id="rect268" />
<rect
   width="2"
   height="2"
   x="40"
   y="20"
   id="rect270" />
<rect
   width="2"
   height="2"
   x="42"
   y="18"
   id="rect272" />
<rect
   width="2"
   height="2"
   x="44"
   y="16"
   id="rect274" />
<rect
   width="2"
   height="2"
   x="44"
   y="20"
   id="rect276" />
<rect
   width="2"
   height="2"
   x="14"
   y="16"
   id="rect278" />
<rect
   width="2"
   height="2"
   x="14"
   y="20"
   id="rect280" />
<rect
   width="2"
   height="2"
   x="16"
   y="18"
   id="rect282" />
<rect
   width="2"
   height="2"
   x="18"
   y="16"
   id="rect284" />
<rect
   width="2"
   height="2"
   x="18"
   y="20"
   id="rect286" />
<rect
   width="2"
   height="2"
   x="24"
   y="26"
   id="rect288" />
<rect
   width="6"
   height="2"
   x="26"
   y="28"
   id="rect290" />
<rect
   width="2"
   height="2"
   x="32"
   y="26"
   id="rect292" />
<rect
   width="4"
   height="2"
   x="12"
   y="40"
   id="rect294" />
<rect
   width="4"
   height="2"
   x="16"
   y="38"
   id="rect296" />
<rect
   width="16"
   height="2"
   x="20"
   y="36"
   id="rect298" />
<rect
   width="8"
   height="2"
   x="36"
   y="38"
   id="rect300" />
<rect
   width="4"
   height="2"
   x="44"
   y="40"
   id="rect302" />
<rect
   width="4"
   height="2"
   x="48"
   y="42"
   id="rect304" />
</svg>
